<?xml version="1.0"?>
<svg xmlns="http://www.w3.org/2000/svg" xmlns:xlink="http://www.w3.org/1999/xlink" xmlns:svgjs="http://svgjs.com/svgjs" version="1.1" width="512" height="512" x="0" y="0" viewBox="0 0 59 60" style="enable-background:new 0 0 512 512" xml:space="preserve" class=""><g><path xmlns="http://www.w3.org/2000/svg" id="Shape" d="m2.51 60h22.34c.6401079.0016606 1.2423372-.3031715 1.62-.82 2.45-3.38 2.23-3.18 2.33-3.18.9868585-.0819181 1.9683819-.2187972 2.94-.41 2.95-.57 3.75-4 1.3-5.47l.82-1.12c2.15-.08 9.37-1.41 16.93-15l2.33-2.33c1.0431797-1.0537657 1.4325348-2.590537 1.0169566-4.0138924-.4155783-1.4233555-1.5706596-2.5091964-3.0169566-2.8361076.3000512-1.0709596.1406614-2.2184928-.4399083-3.1671361s-1.5298949-1.612736-2.6200917-1.8328639l9.78-11c1.4804406-1.66753689 1.4869226-4.17667698.0151173-5.85184053-1.4718053-1.67516354-3.9609115-1.99167003-5.8051173-.73815947-1.3833397-2.10247618-4.1429218-2.80104964-6.36-1.61-.87.52.37-.54-21.34 19.48-.8471518-2.8739733-2.6861655-5.3543386-5.19-7-6.53-4.23-11.52 1.67-8.29 4.6 1.58 1.42 4.13 4.37 3.5 8.14-1 5.9-1.91 11.47.65 14.27l-5.24 6.19c-3.03-1.3-5.78 1.75-3.72 4.4l-5.06 6c-.50629858.5919095-.62289498 1.4239154-.29880346 2.1321949s1.02990653 1.1639699 1.80880346 1.1678051zm29.86-7c-.2378008.3330311-.5969383.5592878-1 .63-.78.15-1.57.28-2.36.37-.4004852.0621273-.8089269-.042694-1.13-.29-.68-.58-.09-1.57.89-1.69.74-.09 1.48-.21 2.22-.35.93-.17 1.85.57 1.38 1.33zm19.33-22.76-4 4c-.7523687.7290218-1.9476313.7290218-2.7 0-.7162844-.7143442-.7513666-1.8632847-.08-2.62l.25-.28c.72-.37.55-.29 4.87-4.6.8681148-.0950645 1.701149.3702765 2.0753863 1.1593311.3742373.7890545.2075064 1.7285698-.4153863 2.3406689zm-2.84-7.76c.601482.7548312.601482 1.8251688 0 2.58-5.15 5.16-4.13 4.21-4.81 4.6-.7284998.2878976-1.5589332.1018021-2.094901-.4694558s-.6688034-1.4118564-.335099-2.1205442l4.46-5c.890528-.6146761 2.1048346-.4355878 2.78.41zm-32.42 16.27c-1.85-2.07-.92-7.66-.09-12.59.78-4.72-2.26-8.26-4.14-9.95-.3801922-.3184382-.4695607-.867416-.21-1.29 2.22-3.29 9.58 0 10.75 7.24.0430951.1869313.1286364.3614356.25.51 3.14 3.49 4.59 6.67 4.3 9.46-.1471034 1.5834549-.9168117 3.0437425-2.14 4.06-.3940084.3373808-.4646332.9200222-.1626421 1.3417684s.8763273.5425638 1.3226421.2782316c1.6896457-1.3328158 2.7710553-3.2901671 3-5.43.35-3.16-1.06-6.63-4.16-10.29 22.25-20.53 20.91-19.36 21.59-19.78 1.26-.8 3.73.06 3.73 1.48l-15.86 17.54c-.2651278.2600904-.36427.6456941-.2574716 1.0014101.1067983.3557159.4019425.6229411.7664874.6939818.3645448.0710407.7384327-.0658067.9709842-.3553919 17.51-19.37 15.41-17.05 16.68-18.44.8947013-.99411252 2.4258874-1.07470124 3.42-.17999996.9941125.89470128 1.0747013 2.42588741.18 3.41999996-16.88 19-16.17 18.17-16.38 18.53-.362151.5778865-.5496667 1.2480816-.54 1.93-.0065346 1.8834858 1.3372469 3.5010787 3.19 3.84-.3903982 1.2488643-.1233028 2.610429.7099803 3.6192463.833283 1.0088172 2.1198985 1.5282584 3.4200197 1.3807537-7.16 10.72-13.24 10.23-13.3 10.23h-.12c-4.41 0-6.25-1.67-6.3-1.71-.2536586-.2518722-.622421-.3492866-.967378-.2555479-.3449571.0937386-.6137016.3643891-.705.71-.0912985.3456109.0087194.7136757.262378.9655479.08.08 1.82 1.76 5.82 2.19l-.57.79c-.5.05-1.11.2-2.37.35-1.2715097.1404427-2.351105.9947987-2.78 2.2h-1.75c-.4230645-1.2283836-1.5182195-2.1013896-2.81-2.24-.68-.08-1.38-.19-2.08-.33-1.2733129-.2330059-2.5675557.2839139-3.33 1.33-.57-.17-1.15-.36-1.72-.56-.0182799-1.3064232-.8011016-2.4806557-2-3l-.44-.22 5-5.86c.5710529-.8013323.4956519-1.8946474-.18-2.61zm.81 13.66c.2471039-.5789826.8810525-.8895748 1.49-.73.73.14 1.48.26 2.21.35.6318814.0197036 1.144034.5188354 1.18 1.15 0 .58-.76.91-1.42.83.1 0-.79-.07-2.35-.37-.65-.12-1.27-.64-1.11-1.23zm-9.78-4c.44079225-.474838 1.16104173-.5595732 1.7-.2.66.37 1.35.72 2 1 .6327946.2102122.9952616.8740072.83 1.52-.2.55-1 .62-1.65.34-.1 0-1.94-1-2.17-1.11-.58-.33-1.03-1.08-.71-1.55zm.18 3.51c.62.34 1.25.67 1.88 1 1.2745114.6549183 2.8260219.4124948 3.84-.6.62.22 1.25.42 1.88.6.2365083 1.3980523 1.3470713 2.4843849 2.75 2.69.82.15 1.66.29 2.49.39 1.4025826.2266439 2.7891972-.4869356 3.42-1.76h1.94c.177012.3822968.4325584.7230253.75 1l.19.13-1.94 2.63h-22.34z" fill="#000000" data-original="#000000" style="" class=""/></g></svg>
